name rise37.2698peak67.6939fall79.5734.mot
datacolumns 19
datarows 32
range 0.000000 0.051666
endheader
time	ground_force1_vx	ground_force1_vy	ground_force1_vz	ground_force1_px	ground_force1_py	ground_force1_pz	ground_force2_vx	ground_force2_vy	ground_force2_vz	ground_force2_px	ground_force2_py	ground_force2_pz	ground_torque1_x	ground_torque1_y	ground_torque1_z	ground_torque2_x	ground_torque2_y	ground_torque2_z	
0.000000	-78.874894	140.300734	-16.689225	0.427631	0.000000	0.112159	-68.182037	768.706359	-50.874648	0.135172	0.000000	-0.068379	0.000000	6.109330	0.000000	0.000000	-26.674834	0.000000	
0.001668	-76.484163	142.798954	-16.913420	0.426252	0.000000	0.111993	-68.591262	767.949432	-50.649238	0.134580	0.000000	-0.068491	0.000000	5.327072	0.000000	0.000000	-26.555903	0.000000	
0.003332	-74.113783	145.276416	-17.135111	0.424928	0.000000	0.111840	-68.997311	767.199102	-50.425703	0.133974	0.000000	-0.068599	0.000000	4.553402	0.000000	0.000000	-26.437148	0.000000	
0.004998	-71.755444	147.757276	-17.348060	0.423667	0.000000	0.111699	-69.401081	766.427835	-50.201252	0.133354	0.000000	-0.068704	0.000000	3.791334	0.000000	0.000000	-26.317459	0.000000	
0.006677	-69.397761	150.269417	-17.546131	0.422472	0.000000	0.111573	-69.803932	765.606173	-49.972735	0.132721	0.000000	-0.068806	0.000000	3.042997	0.000000	0.000000	-26.195592	0.000000	
0.008334	-67.027588	152.842373	-17.723501	0.421350	0.000000	0.111460	-70.207480	764.704236	-49.736854	0.132076	0.000000	-0.068904	0.000000	2.309795	0.000000	0.000000	-26.070263	0.000000	
0.010006	-64.631274	155.505422	-17.874822	0.420303	0.000000	0.111361	-70.613392	763.693065	-49.490365	0.131420	0.000000	-0.068997	0.000000	1.592594	0.000000	0.000000	-25.940225	0.000000	
0.011670	-62.195765	158.285955	-17.995342	0.419335	0.000000	0.111278	-71.023200	762.545720	-49.230236	0.130752	0.000000	-0.069086	0.000000	0.891902	0.000000	0.000000	-25.804341	0.000000	
0.013335	-59.709505	161.208208	-18.080975	0.418447	0.000000	0.111208	-71.438158	761.238078	-48.953780	0.130074	0.000000	-0.069171	0.000000	0.208042	0.000000	0.000000	-25.661634	0.000000	
0.015005	-57.163088	164.292392	-18.128328	0.417643	0.000000	0.111154	-71.859129	759.749343	-48.658743	0.129387	0.000000	-0.069251	0.000000	-0.458693	0.000000	0.000000	-25.511321	0.000000	
0.016671	-54.549671	167.554223	-18.134686	0.416922	0.000000	0.111114	-72.286516	758.062253	-48.343343	0.128690	0.000000	-0.069325	0.000000	-1.107925	0.000000	0.000000	-25.352828	0.000000	
0.018339	-51.865136	171.004811	-18.097962	0.416284	0.000000	0.111089	-72.720229	756.163039	-48.006283	0.127986	0.000000	-0.069394	0.000000	-1.739101	0.000000	0.000000	-25.185790	0.000000	
0.020006	-49.108056	174.650867	-18.016622	0.415730	0.000000	0.111077	-73.159691	754.041176	-47.646729	0.127274	0.000000	-0.069458	0.000000	-2.351441	0.000000	0.000000	-25.010039	0.000000	
0.021672	-46.279480	178.495145	-17.889603	0.415257	0.000000	0.111079	-73.603868	751.688972	-47.264257	0.126555	0.000000	-0.069515	0.000000	-2.943910	0.000000	0.000000	-24.825578	0.000000	
0.023336	-43.382602	182.537049	-17.716219	0.414864	0.000000	0.111095	-74.051318	749.101076	-46.858794	0.125830	0.000000	-0.069567	0.000000	-3.515230	0.000000	0.000000	-24.632552	0.000000	
0.025002	-40.422354	186.773341	-17.496067	0.414548	0.000000	0.111123	-74.500261	746.273930	-46.430544	0.125099	0.000000	-0.069613	0.000000	-4.063898	0.000000	0.000000	-24.431213	0.000000	
0.026667	-37.404954	191.198863	-17.228946	0.414307	0.000000	0.111163	-74.948646	743.205242	-45.979912	0.124364	0.000000	-0.069652	0.000000	-4.588235	0.000000	0.000000	-24.221889	0.000000	
0.028339	-34.337473	195.807234	-16.914791	0.414137	0.000000	0.111214	-75.394225	739.893496	-45.507437	0.123625	0.000000	-0.069685	0.000000	-5.086434	0.000000	0.000000	-24.004952	0.000000	
0.030006	-31.227421	200.591468	-16.553610	0.414034	0.000000	0.111276	-75.834617	736.337536	-45.013725	0.122883	0.000000	-0.069711	0.000000	-5.556619	0.000000	0.000000	-23.780785	0.000000	
0.031667	-28.082407	205.544486	-16.145453	0.413994	0.000000	0.111349	-76.267371	732.536239	-44.499404	0.122138	0.000000	-0.069730	0.000000	-5.996906	0.000000	0.000000	-23.549768	0.000000	
0.033334	-24.909848	210.659514	-15.690387	0.414012	0.000000	0.111431	-76.690007	728.488291	-43.965077	0.121391	0.000000	-0.069743	0.000000	-6.405448	0.000000	0.000000	-23.312251	0.000000	
0.035004	-21.716777	215.930343	-15.188486	0.414085	0.000000	0.111521	-77.100057	724.192054	-43.411308	0.120643	0.000000	-0.069749	0.000000	-6.780493	0.000000	0.000000	-23.068550	0.000000	
0.036669	-18.509704	221.351480	-14.639840	0.414206	0.000000	0.111620	-77.495087	719.645516	-42.838599	0.119894	0.000000	-0.069747	0.000000	-7.120413	0.000000	0.000000	-22.818937	0.000000	
0.038334	-15.294564	226.918191	-14.044564	0.414372	0.000000	0.111725	-77.872708	714.846326	-42.247394	0.119144	0.000000	-0.069739	0.000000	-7.423740	0.000000	0.000000	-22.563642	0.000000	
0.040000	-12.076710	232.626453	-13.402822	0.414577	0.000000	0.111838	-78.230584	709.791875	-41.638082	0.118395	0.000000	-0.069723	0.000000	-7.689186	0.000000	0.000000	-22.302848	0.000000	
0.041672	-8.860956	238.472850	-12.714846	0.414815	0.000000	0.111956	-78.566426	704.479425	-41.011016	0.117647	0.000000	-0.069700	0.000000	-7.915654	0.000000	0.000000	-22.036705	0.000000	
0.043340	-5.651656	244.454419	-11.980968	0.415083	0.000000	0.112079	-78.877985	698.906251	-40.366522	0.116901	0.000000	-0.069670	0.000000	-8.102241	0.000000	0.000000	-21.765329	0.000000	
0.045004	-2.452796	250.568481	-11.201633	0.415374	0.000000	0.112207	-79.163046	693.069803	-39.704926	0.116156	0.000000	-0.069632	0.000000	-8.248243	0.000000	0.000000	-21.488815	0.000000	
0.046672	0.731908	256.812465	-10.377431	0.415684	0.000000	0.112339	-79.419409	686.967852	-39.026569	0.115414	0.000000	-0.069587	0.000000	-8.353142	0.000000	0.000000	-21.207241	0.000000	
0.048333	3.898907	263.183747	-9.509100	0.416007	0.000000	0.112474	-79.644887	680.598625	-38.331827	0.114674	0.000000	-0.069535	0.000000	-8.416605	0.000000	0.000000	-20.920676	0.000000	
0.050000	7.044737	269.679515	-8.597548	0.416339	0.000000	0.112611	-79.837295	673.960914	-37.621126	0.113938	0.000000	-0.069475	0.000000	-8.438470	0.000000	0.000000	-20.629188	0.000000	
0.051666	10.165947	276.296660	-7.643852	0.416676	0.000000	0.112751	-79.994448	667.054173	-36.894954	0.113205	0.000000	-0.069408	0.000000	-8.418734	0.000000	0.000000	-20.332849	0.000000	
